<svg width="68" height="44" viewBox="0 0 68 44" fill="none" xmlns="http://www.w3.org/2000/svg">
<g filter="url(#filter0_i_1201_23323)">
<path d="M30.875 22V12H36.875V22M24.875 9L33.875 2L42.875 9V20C42.875 20.5304 42.6643 21.0391 42.2892 21.4142C41.9141 21.7893 41.4054 22 40.875 22H26.875C26.3446 22 25.8359 21.7893 25.4608 21.4142C25.0857 21.0391 24.875 20.5304 24.875 20V9Z" stroke="url(#paint0_linear_1201_23323)" stroke-width="1.5" stroke-linecap="round" stroke-linejoin="round"/>
<path d="M30.875 22V12H36.875V22M24.875 9L33.875 2L42.875 9V20C42.875 20.5304 42.6643 21.0391 42.2892 21.4142C41.9141 21.7893 41.4054 22 40.875 22H26.875C26.3446 22 25.8359 21.7893 25.4608 21.4142C25.0857 21.0391 24.875 20.5304 24.875 20V9Z" stroke="url(#paint1_linear_1201_23323)" stroke-width="1.5" stroke-linecap="round" stroke-linejoin="round"/>
<path d="M23.2381 43V34.6H24.5341V43H23.2381ZM17.7541 43V34.6H19.0501V43H17.7541ZM18.3181 39.436V38.188H23.8141V39.436H18.3181ZM29.403 43.12C28.787 43.12 28.235 42.98 27.747 42.7C27.267 42.412 26.887 42.024 26.607 41.536C26.327 41.04 26.187 40.476 26.187 39.844C26.187 39.212 26.327 38.652 26.607 38.164C26.887 37.668 27.267 37.28 27.747 37C28.235 36.712 28.787 36.568 29.403 36.568C30.011 36.568 30.555 36.712 31.035 37C31.523 37.28 31.907 37.668 32.187 38.164C32.467 38.652 32.607 39.212 32.607 39.844C32.607 40.476 32.467 41.04 32.187 41.536C31.907 42.024 31.523 42.412 31.035 42.7C30.555 42.98 30.011 43.12 29.403 43.12ZM29.403 41.992C29.779 41.992 30.115 41.9 30.411 41.716C30.707 41.524 30.939 41.268 31.107 40.948C31.275 40.62 31.355 40.252 31.347 39.844C31.355 39.428 31.275 39.06 31.107 38.74C30.939 38.412 30.707 38.156 30.411 37.972C30.115 37.788 29.779 37.696 29.403 37.696C29.027 37.696 28.687 37.792 28.383 37.984C28.087 38.168 27.855 38.424 27.687 38.752C27.519 39.072 27.439 39.436 27.447 39.844C27.439 40.252 27.519 40.62 27.687 40.948C27.855 41.268 28.087 41.524 28.383 41.716C28.687 41.9 29.027 41.992 29.403 41.992ZM33.9298 43V36.7H35.1778V38.044L34.9498 38.188C35.0138 37.98 35.1138 37.78 35.2498 37.588C35.3938 37.396 35.5658 37.228 35.7658 37.084C35.9738 36.932 36.1938 36.812 36.4258 36.724C36.6658 36.636 36.9098 36.592 37.1578 36.592C37.5178 36.592 37.8338 36.652 38.1058 36.772C38.3778 36.892 38.6018 37.072 38.7778 37.312C38.9538 37.552 39.0818 37.852 39.1618 38.212L38.9698 38.164L39.0538 37.96C39.1418 37.776 39.2618 37.604 39.4138 37.444C39.5738 37.276 39.7538 37.128 39.9538 37C40.1538 36.872 40.3658 36.772 40.5898 36.7C40.8138 36.628 41.0338 36.592 41.2498 36.592C41.7218 36.592 42.1098 36.688 42.4138 36.88C42.7258 37.072 42.9578 37.364 43.1098 37.756C43.2698 38.148 43.3498 38.636 43.3498 39.22V43H42.1018V39.292C42.1018 38.932 42.0538 38.64 41.9578 38.416C41.8698 38.184 41.7338 38.012 41.5498 37.9C41.3658 37.788 41.1298 37.732 40.8418 37.732C40.6178 37.732 40.4058 37.772 40.2058 37.852C40.0138 37.924 39.8458 38.028 39.7018 38.164C39.5578 38.3 39.4458 38.46 39.3658 38.644C39.2858 38.82 39.2458 39.016 39.2458 39.232V43H37.9978V39.268C37.9978 38.94 37.9498 38.664 37.8538 38.44C37.7578 38.208 37.6178 38.032 37.4338 37.912C37.2498 37.792 37.0258 37.732 36.7618 37.732C36.5378 37.732 36.3298 37.772 36.1378 37.852C35.9458 37.924 35.7778 38.028 35.6338 38.164C35.4898 38.292 35.3778 38.448 35.2978 38.632C35.2178 38.808 35.1778 39 35.1778 39.208V43H33.9298ZM47.9446 43.12C47.2966 43.12 46.7206 42.984 46.2166 42.712C45.7206 42.432 45.3286 42.052 45.0406 41.572C44.7606 41.092 44.6206 40.54 44.6206 39.916C44.6206 39.42 44.7006 38.968 44.8606 38.56C45.0206 38.152 45.2406 37.8 45.5206 37.504C45.8086 37.2 46.1486 36.968 46.5406 36.808C46.9406 36.64 47.3726 36.556 47.8366 36.556C48.2446 36.556 48.6246 36.636 48.9766 36.796C49.3286 36.948 49.6326 37.16 49.8886 37.432C50.1526 37.704 50.3526 38.028 50.4886 38.404C50.6326 38.772 50.7006 39.176 50.6926 39.616L50.6806 40.144H45.5326L45.2566 39.16H49.6126L49.4326 39.364V39.076C49.4086 38.812 49.3206 38.576 49.1686 38.368C49.0166 38.16 48.8246 37.996 48.5926 37.876C48.3606 37.756 48.1086 37.696 47.8366 37.696C47.4046 37.696 47.0406 37.78 46.7446 37.948C46.4486 38.108 46.2246 38.348 46.0726 38.668C45.9206 38.98 45.8446 39.368 45.8446 39.832C45.8446 40.272 45.9366 40.656 46.1206 40.984C46.3046 41.304 46.5646 41.552 46.9006 41.728C47.2366 41.904 47.6246 41.992 48.0646 41.992C48.3766 41.992 48.6646 41.94 48.9286 41.836C49.2006 41.732 49.4926 41.544 49.8046 41.272L50.4286 42.148C50.2366 42.34 50.0006 42.508 49.7206 42.652C49.4486 42.796 49.1566 42.912 48.8446 43C48.5406 43.08 48.2406 43.12 47.9446 43.12Z" fill="url(#paint2_linear_1201_23323)"/>
<path d="M23.2381 43V34.6H24.5341V43H23.2381ZM17.7541 43V34.6H19.0501V43H17.7541ZM18.3181 39.436V38.188H23.8141V39.436H18.3181ZM29.403 43.12C28.787 43.12 28.235 42.98 27.747 42.7C27.267 42.412 26.887 42.024 26.607 41.536C26.327 41.04 26.187 40.476 26.187 39.844C26.187 39.212 26.327 38.652 26.607 38.164C26.887 37.668 27.267 37.28 27.747 37C28.235 36.712 28.787 36.568 29.403 36.568C30.011 36.568 30.555 36.712 31.035 37C31.523 37.28 31.907 37.668 32.187 38.164C32.467 38.652 32.607 39.212 32.607 39.844C32.607 40.476 32.467 41.04 32.187 41.536C31.907 42.024 31.523 42.412 31.035 42.7C30.555 42.98 30.011 43.12 29.403 43.12ZM29.403 41.992C29.779 41.992 30.115 41.9 30.411 41.716C30.707 41.524 30.939 41.268 31.107 40.948C31.275 40.62 31.355 40.252 31.347 39.844C31.355 39.428 31.275 39.06 31.107 38.74C30.939 38.412 30.707 38.156 30.411 37.972C30.115 37.788 29.779 37.696 29.403 37.696C29.027 37.696 28.687 37.792 28.383 37.984C28.087 38.168 27.855 38.424 27.687 38.752C27.519 39.072 27.439 39.436 27.447 39.844C27.439 40.252 27.519 40.62 27.687 40.948C27.855 41.268 28.087 41.524 28.383 41.716C28.687 41.9 29.027 41.992 29.403 41.992ZM33.9298 43V36.7H35.1778V38.044L34.9498 38.188C35.0138 37.98 35.1138 37.78 35.2498 37.588C35.3938 37.396 35.5658 37.228 35.7658 37.084C35.9738 36.932 36.1938 36.812 36.4258 36.724C36.6658 36.636 36.9098 36.592 37.1578 36.592C37.5178 36.592 37.8338 36.652 38.1058 36.772C38.3778 36.892 38.6018 37.072 38.7778 37.312C38.9538 37.552 39.0818 37.852 39.1618 38.212L38.9698 38.164L39.0538 37.96C39.1418 37.776 39.2618 37.604 39.4138 37.444C39.5738 37.276 39.7538 37.128 39.9538 37C40.1538 36.872 40.3658 36.772 40.5898 36.7C40.8138 36.628 41.0338 36.592 41.2498 36.592C41.7218 36.592 42.1098 36.688 42.4138 36.88C42.7258 37.072 42.9578 37.364 43.1098 37.756C43.2698 38.148 43.3498 38.636 43.3498 39.22V43H42.1018V39.292C42.1018 38.932 42.0538 38.64 41.9578 38.416C41.8698 38.184 41.7338 38.012 41.5498 37.9C41.3658 37.788 41.1298 37.732 40.8418 37.732C40.6178 37.732 40.4058 37.772 40.2058 37.852C40.0138 37.924 39.8458 38.028 39.7018 38.164C39.5578 38.3 39.4458 38.46 39.3658 38.644C39.2858 38.82 39.2458 39.016 39.2458 39.232V43H37.9978V39.268C37.9978 38.94 37.9498 38.664 37.8538 38.44C37.7578 38.208 37.6178 38.032 37.4338 37.912C37.2498 37.792 37.0258 37.732 36.7618 37.732C36.5378 37.732 36.3298 37.772 36.1378 37.852C35.9458 37.924 35.7778 38.028 35.6338 38.164C35.4898 38.292 35.3778 38.448 35.2978 38.632C35.2178 38.808 35.1778 39 35.1778 39.208V43H33.9298ZM47.9446 43.12C47.2966 43.12 46.7206 42.984 46.2166 42.712C45.7206 42.432 45.3286 42.052 45.0406 41.572C44.7606 41.092 44.6206 40.54 44.6206 39.916C44.6206 39.42 44.7006 38.968 44.8606 38.56C45.0206 38.152 45.2406 37.8 45.5206 37.504C45.8086 37.2 46.1486 36.968 46.5406 36.808C46.9406 36.64 47.3726 36.556 47.8366 36.556C48.2446 36.556 48.6246 36.636 48.9766 36.796C49.3286 36.948 49.6326 37.16 49.8886 37.432C50.1526 37.704 50.3526 38.028 50.4886 38.404C50.6326 38.772 50.7006 39.176 50.6926 39.616L50.6806 40.144H45.5326L45.2566 39.16H49.6126L49.4326 39.364V39.076C49.4086 38.812 49.3206 38.576 49.1686 38.368C49.0166 38.16 48.8246 37.996 48.5926 37.876C48.3606 37.756 48.1086 37.696 47.8366 37.696C47.4046 37.696 47.0406 37.78 46.7446 37.948C46.4486 38.108 46.2246 38.348 46.0726 38.668C45.9206 38.98 45.8446 39.368 45.8446 39.832C45.8446 40.272 45.9366 40.656 46.1206 40.984C46.3046 41.304 46.5646 41.552 46.9006 41.728C47.2366 41.904 47.6246 41.992 48.0646 41.992C48.3766 41.992 48.6646 41.94 48.9286 41.836C49.2006 41.732 49.4926 41.544 49.8046 41.272L50.4286 42.148C50.2366 42.34 50.0006 42.508 49.7206 42.652C49.4486 42.796 49.1566 42.912 48.8446 43C48.5406 43.08 48.2406 43.12 47.9446 43.12Z" fill="url(#paint3_linear_1201_23323)"/>
</g>
<defs>
<filter id="filter0_i_1201_23323" x="0" y="0" width="69.75" height="46" filterUnits="userSpaceOnUse" color-interpolation-filters="sRGB">
<feFlood flood-opacity="0" result="BackgroundImageFix"/>
<feBlend mode="normal" in="SourceGraphic" in2="BackgroundImageFix" result="shape"/>
<feColorMatrix in="SourceAlpha" type="matrix" values="0 0 0 0 0 0 0 0 0 0 0 0 0 0 0 0 0 0 127 0" result="hardAlpha"/>
<feOffset dx="2" dy="2"/>
<feGaussianBlur stdDeviation="1"/>
<feComposite in2="hardAlpha" operator="arithmetic" k2="-1" k3="1"/>
<feColorMatrix type="matrix" values="0 0 0 0 0 0 0 0 0 0 0 0 0 0 0 0 0 0 0.12 0"/>
<feBlend mode="normal" in2="shape" result="effect1_innerShadow_1201_23323"/>
</filter>
<linearGradient id="paint0_linear_1201_23323" x1="24.8749" y1="11.9666" x2="39.8445" y2="5.23131" gradientUnits="userSpaceOnUse">
<stop stop-color="#003C91"/>
<stop offset="1" stop-color="#0066DC"/>
</linearGradient>
<linearGradient id="paint1_linear_1201_23323" x1="10.0313" y1="-34.7442" x2="53.2652" y2="-24.4362" gradientUnits="userSpaceOnUse">
<stop offset="0.13" stop-color="#EEAAFD"/>
<stop offset="0.71" stop-color="#8F65F8"/>
<stop offset="1" stop-color="#483185"/>
</linearGradient>
<linearGradient id="paint2_linear_1201_23323" x1="16.3748" y1="37.9799" x2="27.571" y2="21.6547" gradientUnits="userSpaceOnUse">
<stop stop-color="#003C91"/>
<stop offset="1" stop-color="#0066DC"/>
</linearGradient>
<linearGradient id="paint3_linear_1201_23323" x1="-12.4878" y1="9.95348" x2="43.1439" y2="52.9384" gradientUnits="userSpaceOnUse">
<stop offset="0.13" stop-color="#EEAAFD"/>
<stop offset="0.71" stop-color="#8F65F8"/>
<stop offset="1" stop-color="#483185"/>
</linearGradient>
</defs>
</svg>
